<?xml version="1.0" standalone="no"?>
<!DOCTYPE svg PUBLIC "-//W3C//DTD SVG 20010904//EN"
 "http://www.w3.org/TR/2001/REC-SVG-20010904/DTD/svg10.dtd">
<svg version="1.0" xmlns="http://www.w3.org/2000/svg"
 width="300.000000pt" height="300.000000pt" viewBox="0 0 300.000000 300.000000"
 preserveAspectRatio="xMidYMid meet">
<metadata>
Created by potrace 1.11, written by Peter Selinger 2001-2013
</metadata>
<g transform="translate(0.000000,300.000000) scale(0.100000,-0.100000)"
fill="#000000" stroke="none">
<path d="M0 1500 l0 -1500 1500 0 1500 0 0 1500 0 1500 -1500 0 -1500 0 0
-1500z m553 223 l0 -78 6 69 c5 56 10 71 26 78 18 8 18 8 -2 4 -13 -2 -23 0
-23 5 0 5 47 9 105 9 58 0 105 -3 105 -8 0 -4 -19 -7 -42 -6 l-43 2 40 -6 40
-7 3 -278 2 -278 -22 -10 -23 -10 23 5 c12 2 22 0 22 -4 0 -5 -161 -9 -357 -8
l-358 1 1 156 1 156 117 2 c65 1 120 3 122 5 2 2 4 39 5 81 3 125 11 80 12
-65 l1 -133 5 125 6 125 89 3 c67 2 92 -1 105 -12 14 -13 16 -12 17 12 1 15 3
55 4 90 4 87 13 69 13 -25z m234 -210 l-1 -298 -6 285 c-5 263 -4 310 6 310 1
0 2 -134 1 -297z m178 288 c2 -4 -1 -13 -7 -21 -8 -12 -8 -11 -3 5 5 15 3 17
-6 8 -18 -18 -1 -37 19 -21 12 10 14 10 8 1 -4 -7 -3 -13 3 -13 6 0 7 -7 4
-17 -4 -11 -3 -14 5 -9 8 5 10 2 5 -10 -5 -14 -8 -13 -20 7 -30 51 -4 -7 97
-215 58 -119 108 -216 111 -216 7 0 12 10 114 233 70 154 84 191 75 207 -8 14
-8 20 0 20 6 0 8 5 4 12 -5 7 -3 8 5 4 7 -5 10 -15 7 -25 -4 -9 2 -5 13 9 11
14 17 27 15 30 -3 2 -9 -2 -14 -10 -7 -10 -10 -11 -10 -2 0 6 -1 15 -2 20 -2
4 17 8 42 8 l45 2 0 -303 0 -302 -42 0 -41 0 -2 166 c0 91 -3 180 -5 196 -2
17 -1 39 3 50 4 11 9 -74 12 -190 l5 -210 28 0 28 0 0 290 c1 259 -1 290 -15
291 -9 1 -11 0 -4 -2 10 -4 13 -68 13 -289 l0 -285 -22 0 -23 0 0 233 c0 205
-2 228 -14 202 -89 -194 -88 -192 -77 -214 8 -15 9 -21 1 -21 -6 0 -8 -5 -4
-12 5 -7 3 -8 -5 -4 -7 5 -10 14 -7 22 3 8 3 14 0 14 -3 0 -18 -30 -34 -66
-31 -68 -39 -97 -16 -55 11 20 14 21 19 7 5 -12 3 -15 -5 -10 -8 5 -9 2 -5 -9
3 -10 2 -17 -4 -17 -6 0 -7 -6 -3 -12 5 -9 2 -9 -9 1 -15 12 -19 9 -32 -23
-15 -35 -29 -43 -52 -28 -6 4 -34 56 -62 116 -46 98 -52 107 -68 95 -11 -10
-14 -10 -9 -1 4 6 3 12 -3 12 -6 0 -7 7 -4 17 4 11 3 14 -5 9 -8 -5 -10 -1 -5
10 4 12 3 15 -5 10 -8 -5 -10 -1 -5 10 4 12 3 15 -5 10 -8 -5 -10 -1 -5 10 3
10 2 15 -3 12 -5 -4 -10 6 -11 20 -1 20 8 10 33 -38 50 -97 41 -67 -16 51 -37
78 -49 97 -50 76 0 -16 4 -26 10 -22 10 6 14 -9 12 -60 0 -16 -1 -105 -2 -196
l-2 -166 -44 0 -43 0 0 302 0 302 45 0 c24 0 46 -3 49 -6z m672 -41 l0 -47
-47 0 -47 0 0 47 0 47 47 0 47 0 0 -47z m-358 -239 c-51 -110 -95 -201 -98
-201 -3 0 -48 87 -99 192 -69 143 -89 194 -81 202 9 8 10 8 5 -1 -4 -7 -3 -13
3 -13 6 0 7 -7 4 -17 -4 -11 -3 -14 5 -9 8 5 10 1 5 -10 -4 -12 -3 -15 5 -10
8 5 10 1 5 -10 -4 -12 -3 -15 5 -10 8 5 10 1 5 -10 -4 -12 -3 -15 5 -10 8 5
10 1 5 -10 -4 -12 -3 -15 5 -10 8 5 10 1 5 -10 -4 -12 -3 -15 5 -10 8 5 10 1
5 -10 -4 -12 -3 -15 5 -10 8 5 10 1 5 -10 -4 -12 -3 -15 5 -10 8 5 10 1 5 -10
-4 -12 -3 -15 5 -10 8 5 10 1 5 -10 -5 -13 -3 -15 7 -9 9 5 11 4 6 -3 -4 -7
-3 -12 3 -12 6 0 7 -7 4 -17 -4 -11 -3 -14 5 -9 8 5 10 2 6 -8 -3 -9 -1 -16 6
-16 6 0 8 -4 5 -10 -3 -5 -2 -10 4 -10 6 0 7 -7 4 -17 -4 -11 -3 -14 5 -9 8 4
10 2 6 -8 -4 -11 0 -13 15 -9 11 3 18 10 14 16 -4 6 -1 7 7 2 10 -6 12 -4 7 9
-5 11 -3 15 5 10 8 -5 9 -2 5 9 -3 9 -2 19 4 22 5 4 6 11 3 17 -5 7 -2 8 6 3
10 -6 12 -4 7 8 -3 10 -2 17 4 17 6 0 7 5 3 12 -5 7 -3 8 6 3 10 -6 12 -4 7 9
-5 11 -3 15 5 10 8 -5 9 -2 5 9 -3 9 -2 19 4 22 5 4 6 11 3 17 -5 7 -2 8 6 3
10 -6 12 -4 7 9 -5 11 -3 15 5 10 8 -5 9 -2 5 9 -3 10 -2 17 4 17 6 0 7 5 3
12 -5 7 -3 8 6 3 10 -6 12 -4 7 9 -5 11 -3 15 5 10 8 -5 9 -2 5 10 -5 11 -3
15 5 10 8 -5 9 -2 5 9 -4 10 -2 17 4 17 6 0 8 7 5 16 -4 10 -2 13 6 8 8 -5 9
-1 4 12 -5 14 -4 16 4 8 8 -8 -13 -64 -81 -213z m481 201 c0 -5 -10 -8 -22 -8
l-23 1 1 -220 c0 -121 2 -228 5 -238 8 -26 25 -41 34 -28 4 7 1 10 -7 9 -7 -2
-12 4 -10 14 1 9 -2 19 -7 23 -6 3 -10 90 -11 220 0 177 3 215 14 215 15 0 26
-21 26 -51 0 -17 8 -19 65 -19 63 0 65 -1 65 -25 0 -24 -3 -25 -60 -25 l-60 0
0 -142 c0 -79 4 -148 8 -155 4 -6 6 56 4 137 l-3 149 58 3 c57 3 58 3 58 33 0
30 0 30 -61 33 -60 3 -62 4 -66 32 -3 16 -1 35 3 41 3 6 7 -1 7 -16 0 -37 9
-44 73 -46 l56 -2 0 -43 c0 -24 -3 -43 -6 -42 -3 0 -30 0 -59 -1 l-53 -1 2
-127 c1 -144 5 -150 76 -154 40 -3 40 -3 40 -45 l0 -42 -73 0 c-41 0 -74 4
-74 10 0 5 -4 7 -9 3 -6 -3 -19 4 -30 16 -19 21 -20 35 -20 258 l0 237 29 2
c17 1 30 -1 30 -6z m248 -25 c2 -17 4 -32 5 -33 1 -2 28 -4 58 -5 l56 -2 0
-43 c0 -24 -3 -43 -6 -42 -3 0 -27 0 -53 -1 l-48 -1 0 -123 c0 -140 6 -154 71
-158 35 -3 36 -4 36 -45 l0 -42 -68 0 c-47 0 -69 4 -73 13 -4 11 1 11 24 4 15
-6 45 -9 67 -7 35 3 38 5 38 33 0 21 -5 30 -18 31 -12 1 -13 1 -2 -3 8 -2 15
-15 15 -29 0 -22 -4 -24 -42 -24 -56 0 -89 18 -110 58 -21 44 -32 54 -19 18 6
-15 8 -32 5 -38 -4 -7 -2 -8 5 -4 7 5 10 2 9 -6 -2 -7 2 -12 9 -11 8 2 10 -4
6 -14 -6 -14 -9 -13 -25 7 -10 12 -16 26 -13 30 3 5 1 11 -4 15 -6 3 -10 94
-10 229 l0 223 42 0 c41 0 43 -1 45 -30z m-1485 -24 c3 -5 -42 -8 -99 -8 -57
0 -104 3 -104 8 0 4 45 7 99 7 55 0 102 -3 104 -7z m1113 -21 c-3 -3 -22 -5
-41 -6 l-36 -1 0 -215 0 -215 33 0 c29 0 33 3 34 28 1 25 1 25 -3 2 -3 -20
-10 -25 -35 -25 -23 0 -29 4 -24 15 8 22 9 366 1 388 -11 28 43 23 56 -5 l10
-23 -5 23 c-2 12 0 22 5 22 6 0 9 -88 9 -219 l-1 -218 -47 0 -47 0 0 227 0
227 48 0 c27 1 46 -2 43 -5z m790 -3 c3 -5 10 -6 16 -3 7 5 8 2 3 -6 -6 -10
-4 -12 7 -7 19 7 58 -32 50 -52 -3 -9 0 -11 8 -6 8 5 11 4 6 -3 -3 -6 -2 -13
3 -16 5 -3 9 -42 9 -85 l0 -79 -141 -1 c-77 -1 -144 -4 -149 -7 -5 -3 -1 -15
8 -25 13 -15 15 -22 6 -31 -8 -8 -14 -4 -22 16 -13 36 -13 54 3 59 7 2 5 3 -3
3 -21 -2 -17 -62 7 -88 10 -11 32 -27 50 -34 35 -15 123 -17 163 -4 15 5 1 6
-36 3 -72 -7 -145 4 -124 17 8 5 19 5 25 0 9 -8 55 -7 161 4 l41 4 0 -44 c0
-24 -4 -41 -8 -38 -5 3 -9 1 -9 -4 0 -12 -16 -14 -130 -14 -117 0 -131 2 -123
15 4 6 0 8 -10 4 -22 -8 -89 57 -81 78 4 8 2 15 -3 15 -12 0 -16 30 -16 115 0
85 4 115 16 115 5 0 7 7 3 15 -6 16 59 89 73 81 4 -3 13 -1 21 4 18 11 169 10
176 -1z m234 -9 c7 -11 10 -11 10 -2 0 7 4 11 9 7 5 -3 12 -1 15 4 3 5 44 9
91 9 47 0 88 -4 91 -9 3 -5 9 -7 13 -4 10 6 53 -40 60 -63 2 -9 6 -99 7 -198
l4 -181 -49 0 c-28 0 -48 4 -48 11 -1 6 -2 84 -3 174 -1 112 -5 160 -12 156
-7 -5 -8 -2 -3 5 18 29 25 -14 27 -169 l3 -165 35 0 35 0 0 160 c-1 155 -6
228 -14 219 -6 -6 -41 28 -36 35 2 4 -4 8 -13 9 -129 14 -140 14 -185 -6 -43
-19 -67 -16 -53 7 3 4 -9 8 -27 7 l-32 -1 0 -215 0 -215 30 0 30 0 3 163 3
163 45 21 c31 13 61 19 94 16 26 -1 46 0 43 5 -9 15 -96 6 -144 -14 -36 -16
-49 -27 -50 -43 0 -11 0 -85 0 -163 l1 -143 -25 0 -25 0 0 210 c0 199 1 210
19 210 19 0 35 -25 26 -41 -3 -4 19 3 49 17 108 49 222 19 246 -66 4 -15 8
-64 9 -109 1 -64 -2 -81 -11 -75 -10 6 -10 5 -1 -7 7 -8 12 -43 12 -77 -1 -62
-1 -62 -30 -62 l-29 0 0 163 c0 89 -4 168 -9 176 -7 10 -13 11 -30 2 -11 -7
-21 -8 -21 -3 0 11 -79 12 -86 1 -2 -5 -12 -5 -21 -2 -11 4 -14 3 -9 -5 5 -8
1 -10 -10 -5 -12 4 -15 3 -10 -5 4 -7 2 -10 -7 -6 -7 2 -14 -1 -14 -8 -1 -7
-2 -83 -3 -169 l-2 -156 -44 0 -43 0 0 227 0 228 40 -2 c23 0 44 -7 49 -16z
m-1284 -85 c0 -14 -5 -25 -9 -25 -5 0 -5 -4 -2 -10 3 -5 1 -10 -5 -10 -6 0 -8
-5 -4 -12 5 -7 3 -8 -6 -3 -10 6 -12 4 -7 -8 3 -9 2 -19 -4 -22 -5 -4 -6 -12
-3 -18 5 -8 3 -8 -6 0 -11 11 -9 23 15 73 16 33 30 60 31 60 1 0 1 -11 0 -25z
m-196 -340 c18 0 29 9 41 34 13 27 17 30 22 17 5 -11 3 -15 -4 -10 -7 4 -10 1
-7 -6 12 -36 -73 -69 -86 -34 -3 8 -10 12 -16 9 -6 -4 -7 1 -3 11 4 12 3 15
-5 10 -8 -5 -10 -1 -5 10 4 12 3 15 -5 10 -8 -5 -10 -1 -5 10 5 13 3 15 -7 9
-8 -5 -11 -4 -6 3 3 6 2 13 -3 17 -6 3 -7 13 -4 22 4 11 3 14 -5 9 -8 -5 -10
-1 -5 10 4 12 3 15 -5 10 -8 -5 -10 -1 -5 10 4 12 3 15 -5 10 -8 -5 -10 -1 -5
10 4 12 3 15 -5 10 -8 -5 -10 -1 -5 10 4 12 3 15 -5 10 -8 -5 -10 -1 -5 10 5
13 22 -14 62 -97 49 -100 59 -114 81 -114z m124 179 c4 -10 2 -13 -6 -8 -8 5
-9 2 -5 -9 3 -9 2 -19 -4 -22 -5 -4 -6 -12 -3 -18 5 -9 4 -9 -5 -1 -8 8 -8 18
0 42 13 36 15 38 23 16z m977 -87 c-8 -8 -14 -7 -23 2 -10 11 -10 13 0 7 6 -4
12 -2 12 4 0 6 5 8 11 4 8 -4 8 -9 0 -17z"/>
<path d="M628 1793 c12 -2 30 -2 40 0 9 3 -1 5 -23 4 -22 0 -30 -2 -17 -4z"/>
<path d="M590 1743 c0 -12 3 -14 8 -7 4 7 16 14 27 17 15 4 14 5 -7 6 -21 1
-28 -4 -28 -16z"/>
<path d="M688 1753 c24 -2 42 -9 42 -16 0 -15 -59 -49 -71 -41 -15 9 0 24 18
17 11 -4 14 -3 9 5 -4 8 -2 10 7 6 8 -3 18 -1 22 5 4 7 -13 11 -50 11 l-57 0
5 -40 c4 -39 -6 -63 -16 -38 -3 8 -6 6 -6 -4 -1 -23 -2 -24 68 17 32 19 66 35
74 35 10 0 13 8 9 25 -4 23 -9 25 -51 23 l-46 -1 43 -4z m-43 -75 c-9 -6 -19
-7 -22 -4 -4 3 -1 6 6 6 7 0 9 4 6 10 -4 6 1 7 11 3 15 -6 15 -7 -1 -15z"/>
<path d="M592 1700 c0 -14 2 -19 5 -12 2 6 2 18 0 25 -3 6 -5 1 -5 -13z"/>
<path d="M732 1660 c0 -19 2 -27 5 -17 2 9 2 25 0 35 -3 9 -5 1 -5 -18z"/>
<path d="M683 1659 c-18 -12 -30 -25 -27 -31 4 -6 -2 -7 -16 -3 -18 6 -22 4
-17 -8 3 -8 1 -20 -4 -26 -6 -8 -5 -8 3 -1 19 15 32 12 18 -5 -7 -8 8 -3 34
11 47 26 60 39 29 27 -16 -6 -16 -5 -3 11 11 15 23 47 17 46 -1 0 -17 -10 -34
-21z m13 -14 c-10 -7 -15 -18 -12 -23 6 -11 -23 -26 -32 -17 -3 3 0 5 7 5 7 0
11 6 8 13 -2 6 5 17 17 24 28 17 35 16 12 -2z"/>
<path d="M415 1629 l-70 -5 75 -2 c48 -2 70 -5 61 -11 -8 -5 -36 -7 -63 -4
-48 5 -49 4 -46 -21 6 -39 13 -40 62 -11 25 15 50 24 56 20 5 -3 10 3 10 14 0
26 -3 27 -85 20z m5 -51 c-18 -10 -35 -17 -38 -14 -3 4 0 6 6 6 7 0 11 3 11 8
-3 14 1 17 27 19 26 1 25 1 -6 -19z"/>
<path d="M554 1525 c0 -66 1 -92 3 -57 2 34 2 88 0 120 -2 31 -3 3 -3 -63z"/>
<path d="M534 1505 c0 -66 1 -92 3 -57 2 34 2 88 0 120 -2 31 -3 3 -3 -63z"/>
<path d="M591 1604 c0 -11 3 -14 6 -6 3 7 2 16 -1 19 -3 4 -6 -2 -5 -13z"/>
<path d="M733 1598 c-4 -7 -7 -22 -8 -32 0 -25 -21 -32 -29 -10 -5 12 -2 15
11 10 13 -5 15 -4 7 4 -17 17 -123 -39 -122 -65 0 -17 1 -17 5 -2 2 9 9 17 14
17 6 0 7 -4 4 -10 -3 -5 0 -10 7 -11 7 0 3 -5 -9 -11 -13 -6 -23 -15 -23 -20
0 -5 16 0 35 11 19 12 50 30 68 41 19 11 36 17 39 14 3 -3 8 13 10 35 4 45 3
47 -9 29z m-48 -48 c-3 -5 0 -10 7 -10 7 0 -2 -10 -20 -22 -28 -17 -35 -19
-42 -8 -6 10 0 19 18 31 31 20 46 24 37 9z"/>
<path d="M650 1530 c-8 -5 -12 -11 -9 -14 3 -3 14 1 25 9 21 16 8 20 -16 5z"/>
<path d="M352 1580 c0 -14 2 -19 5 -12 2 6 2 18 0 25 -3 6 -5 1 -5 -13z"/>
<path d="M491 1558 c0 -16 -3 -28 -5 -28 -2 0 -11 -2 -19 -5 -8 -4 -14 0 -14
10 0 9 6 14 12 11 6 -2 12 2 12 10 0 10 -16 5 -56 -17 -59 -33 -89 -55 -59
-44 14 5 16 2 13 -15 -4 -20 -1 -20 53 10 73 41 75 43 69 71 -4 22 -4 22 -6
-3z m-51 -28 c-13 -9 -13 -10 0 -10 8 0 2 -9 -15 -20 -16 -11 -34 -20 -40 -20
-5 0 -3 5 5 10 13 9 13 10 0 10 -16 0 38 38 55 39 6 0 3 -4 -5 -9z"/>
<path d="M410 1510 c-9 -6 -10 -10 -3 -10 6 0 15 5 18 10 8 12 4 12 -15 0z"/>
<path d="M350 1539 c0 -5 5 -7 10 -4 6 3 10 8 10 11 0 2 -4 4 -10 4 -5 0 -10
-5 -10 -11z"/>
<path d="M665 1475 c-61 -38 -70 -48 -71 -74 -1 -25 2 -29 13 -20 15 13 18 23
3 14 -5 -3 -10 3 -10 14 0 12 2 21 4 21 2 0 13 3 23 7 15 6 16 5 5 -9 -9 -12
-10 -18 -2 -23 6 -4 14 -4 17 -1 4 3 1 6 -6 6 -7 0 -9 5 -6 11 4 6 13 8 21 5
8 -3 30 2 49 11 30 14 35 22 35 50 0 18 -1 33 -2 32 -2 -1 -34 -21 -73 -44z
m65 5 c0 -11 -12 -26 -30 -35 -42 -22 -51 -18 -12 5 46 28 40 34 -10 9 -50
-25 -44 -15 10 17 20 12 38 23 40 23 1 1 2 -8 2 -19z"/>
<path d="M66 1361 c1 -116 4 -146 15 -147 10 -1 10 0 2 3 -14 5 -17 25 -7 36
8 7 7 204 -1 216 -12 21 26 31 111 28 l89 -2 3 -137 c2 -124 1 -137 -15 -140
-10 -2 23 -4 72 -4 50 0 79 1 65 3 -14 2 -32 6 -40 9 -26 9 10 24 65 25 l50 2
-45 7 c-47 7 -38 13 18 12 22 -1 32 3 32 13 0 8 -5 15 -11 15 -5 0 -8 -3 -6
-7 3 -5 -7 -9 -21 -10 -25 -1 -25 0 8 17 32 17 36 17 42 2 5 -12 7 -8 7 12 1
27 0 28 -21 14 -13 -8 -45 -28 -73 -43 -27 -16 -57 -38 -65 -50 -14 -18 -15
-13 -21 75 l-5 95 -2 -92 c-1 -57 -6 -93 -13 -93 -7 0 -9 48 -7 144 l3 145
-115 -1 -115 0 1 -147z"/>
<path d="M488 1502 c-1 -4 -33 -25 -70 -47 -38 -22 -68 -46 -68 -55 0 -12 2
-12 9 -1 5 8 11 9 15 3 4 -6 -2 -15 -11 -21 -10 -6 -14 -11 -10 -11 5 0 40 18
78 40 61 36 69 44 69 70 0 29 -5 38 -12 22z m2 -34 c0 -19 -100 -72 -112 -60
-6 6 9 20 44 40 60 35 68 37 68 20z"/>
<path d="M437 1446 c-48 -29 -61 -43 -22 -23 31 16 74 46 65 46 -3 0 -22 -10
-43 -23z"/>
<path d="M351 1464 c0 -11 3 -14 6 -6 3 7 2 16 -1 19 -3 4 -6 -2 -5 -13z"/>
<path d="M100 1351 c0 -80 4 -122 12 -127 7 -5 8 -3 3 6 -4 7 -2 16 6 21 10 6
11 9 2 9 -32 0 -7 28 57 64 55 31 70 45 70 63 0 27 -3 28 -35 7 -14 -9 -22
-21 -18 -27 4 -7 0 -8 -11 -4 -10 4 -27 0 -39 -8 -26 -18 -37 -19 -37 -2 0 6
32 30 70 51 92 52 91 66 -5 66 l-75 0 0 -119z m136 100 c-6 -9 -111 -71 -121
-71 -3 0 -5 18 -5 40 l0 40 66 0 c36 0 63 -4 60 -9z m1 -74 c-5 -12 -107 -77
-122 -77 -3 0 -5 6 -5 14 0 13 52 40 77 41 7 0 12 3 10 7 -2 8 36 38 42 33 2
-2 1 -10 -2 -18z"/>
<path d="M122 1422 c2 -25 5 -28 19 -19 10 6 16 14 13 18 -2 4 3 10 12 13 9 4
13 2 8 -5 -4 -8 0 -7 15 0 11 7 21 13 21 14 0 2 -20 4 -45 6 -44 2 -45 1 -43
-27z"/>
<path d="M489 1418 c-1 -7 -2 -22 -3 -32 0 -11 -8 -21 -16 -24 -13 -4 -13 -3
-2 10 8 10 9 19 3 22 -14 9 -121 -56 -121 -74 0 -11 2 -12 8 -3 5 7 13 9 21 4
10 -7 8 -10 -8 -16 -13 -4 -20 -9 -18 -12 3 -3 34 11 70 31 35 20 67 33 70 29
4 -3 7 12 7 35 0 38 -8 60 -11 30z m-32 -42 c-11 -9 -14 -15 -7 -18 7 -2 -4
-11 -23 -20 -55 -26 -64 -5 -10 25 52 29 68 34 40 13z"/>
<path d="M404 1344 c-18 -14 -18 -14 6 -3 31 14 36 19 24 19 -6 0 -19 -7 -30
-16z"/>
<path d="M665 1386 c-64 -38 -70 -45 -72 -76 l-1 -35 6 34 c4 19 14 37 22 39
13 5 13 3 1 -12 -12 -15 -12 -16 5 -10 18 5 18 5 0 -10 -31 -25 -12 -19 44 14
28 17 55 30 60 30 6 0 10 16 10 35 0 19 -1 35 -2 34 -2 0 -34 -19 -73 -43z
m65 6 c0 -26 -79 -70 -91 -51 -6 10 5 21 39 41 56 33 52 32 52 10z"/>
<path d="M678 1372 c-16 -9 -28 -20 -28 -24 0 -12 3 -10 40 17 38 28 29 33
-12 7z"/>
<path d="M552 1313 c-1 -51 -6 -93 -11 -93 -4 0 -7 12 -5 28 3 25 3 25 -4 3
-4 -13 -16 -27 -27 -31 -10 -4 17 -6 61 -6 43 0 69 2 57 4 -13 2 -23 8 -23 14
0 6 -6 6 -15 -2 -20 -17 -24 -4 -28 95 l-3 80 -2 -92z"/>
<path d="M533 1330 c0 -30 2 -43 4 -27 2 15 2 39 0 55 -2 15 -4 2 -4 -28z"/>
<path d="M703 1319 c-18 -12 -30 -26 -26 -32 4 -7 0 -8 -11 -4 -9 4 -27 0 -40
-8 -12 -8 -26 -12 -29 -8 -4 3 -7 2 -7 -4 0 -16 19 -19 80 -12 l55 6 -48 1
c-27 1 -46 6 -42 11 3 6 23 8 45 5 31 -4 40 -1 40 11 0 8 -5 15 -11 15 -5 0
-7 5 -4 10 13 21 24 8 28 -32 3 -41 4 -41 5 10 1 28 1 52 0 52 -2 0 -18 -10
-35 -21z m2 -29 c3 -5 2 -10 -4 -10 -5 0 -13 5 -16 10 -3 6 -2 10 4 10 5 0 13
-4 16 -10z"/>
<path d="M240 1295 l0 -35 -47 0 c-30 0 -43 3 -35 9 8 4 28 7 45 5 30 -4 30
-3 11 12 -13 11 -14 14 -3 11 9 -3 16 1 16 9 0 10 -10 8 -40 -9 -61 -33 -59
-47 7 -47 l56 0 0 40 c0 22 -2 40 -5 40 -3 0 -5 -16 -5 -35z"/>
<path d="M491 1264 c0 -11 3 -14 6 -6 3 7 2 16 -1 19 -3 4 -6 -2 -5 -13z"/>
<path d="M143 1213 c9 -2 23 -2 30 0 6 3 -1 5 -18 5 -16 0 -22 -2 -12 -5z"/>
<path d="M203 1213 c9 -2 23 -2 30 0 6 3 -1 5 -18 5 -16 0 -22 -2 -12 -5z"/>
<path d="M443 1213 c9 -2 23 -2 30 0 6 3 -1 5 -18 5 -16 0 -22 -2 -12 -5z"/>
<path d="M658 1213 c7 -3 16 -2 19 1 4 3 -2 6 -13 5 -11 0 -14 -3 -6 -6z"/>
<path d="M698 1213 c7 -3 16 -2 19 1 4 3 -2 6 -13 5 -11 0 -14 -3 -6 -6z"/>
<path d="M885 1787 c-3 -7 -4 -138 -3 -292 l3 -280 30 0 c26 0 30 4 32 30 2
25 1 26 -6 10 -5 -11 -7 -23 -4 -27 2 -5 -7 -8 -21 -8 l-26 0 0 284 0 285 23
4 22 4 -23 2 c-12 0 -25 -5 -27 -12z"/>
<path d="M913 1745 c0 -8 4 -15 9 -15 4 0 8 4 8 9 0 6 -4 12 -8 15 -5 3 -9 -1
-9 -9z"/>
<path d="M1416 1735 c-3 -8 -1 -15 4 -15 6 0 10 7 10 15 0 8 -2 15 -4 15 -2 0
-6 -7 -10 -15z"/>
<path d="M942 1585 c0 -16 2 -22 5 -12 2 9 2 23 0 30 -3 6 -5 -1 -5 -18z"/>
<path d="M942 1525 c0 -16 2 -22 5 -12 2 9 2 23 0 30 -3 6 -5 -1 -5 -18z"/>
<path d="M942 1465 c0 -16 2 -22 5 -12 2 9 2 23 0 30 -3 6 -5 -1 -5 -18z"/>
<path d="M943 1395 c0 -22 2 -30 4 -17 2 12 2 30 0 40 -3 9 -5 -1 -4 -23z"/>
<path d="M943 1315 c0 -22 2 -30 4 -17 2 12 2 30 0 40 -3 9 -5 -1 -4 -23z"/>
<path d="M1554 1786 c-3 -8 -4 -25 -2 -38 2 -19 9 -23 38 -23 33 0 35 2 35 35
0 32 -3 35 -33 38 -21 2 -34 -2 -38 -12z m66 -26 c0 -27 -3 -30 -30 -30 -27 0
-30 3 -30 30 0 27 3 30 30 30 27 0 30 -3 30 -30z"/>
<path d="M1170 1349 c0 -5 5 -7 10 -4 6 3 10 8 10 11 0 2 -4 4 -10 4 -5 0 -10
-5 -10 -11z"/>
<path d="M1739 1613 c-4 -104 -2 -273 4 -273 4 0 7 65 7 145 0 80 -2 145 -5
145 -3 0 -5 -8 -6 -17z"/>
<path d="M1808 1273 c7 -3 16 -2 19 1 4 3 -2 6 -13 5 -11 0 -14 -3 -6 -6z"/>
<path d="M1868 1273 c16 -3 22 -11 22 -30 0 -25 -1 -25 -60 -21 -38 3 -55 1
-45 -4 8 -5 37 -8 63 -6 45 3 47 4 47 33 0 25 -4 30 -25 31 -22 1 -22 0 -2 -3z"/>
<path d="M1934 1707 c-3 -8 -4 -30 -1 -49 3 -30 4 -29 5 10 2 38 5 42 27 42
22 0 25 -4 25 -35 l0 -35 60 0 c57 0 60 -1 60 -25 0 -24 -3 -25 -55 -25 l-55
0 2 -57 2 -58 3 52 4 52 52 3 c50 3 52 4 52 33 0 29 -1 30 -57 33 -56 3 -57 3
-60 35 -2 27 -8 33 -31 35 -17 2 -29 -2 -33 -11z"/>
<path d="M1932 1595 c0 -16 2 -22 5 -12 2 9 2 23 0 30 -3 6 -5 -1 -5 -18z"/>
<path d="M1932 1535 c0 -16 2 -22 5 -12 2 9 2 23 0 30 -3 6 -5 -1 -5 -18z"/>
<path d="M1932 1475 c0 -16 2 -22 5 -12 2 9 2 23 0 30 -3 6 -5 -1 -5 -18z"/>
<path d="M2002 1383 c-1 -50 1 -94 6 -96 4 -3 6 25 4 61 -5 116 -9 130 -10 35z"/>
<path d="M1932 1415 c0 -16 2 -22 5 -12 2 9 2 23 0 30 -3 6 -5 -1 -5 -18z"/>
<path d="M1932 1355 c0 -16 2 -22 5 -12 2 9 2 23 0 30 -3 6 -5 -1 -5 -18z"/>
<path d="M2038 1273 c6 -2 18 -2 25 0 6 3 1 5 -13 5 -14 0 -19 -2 -12 -5z"/>
<path d="M1621 1574 c0 -11 3 -14 6 -6 3 7 2 16 -1 19 -3 4 -6 -2 -5 -13z"/>
<path d="M1621 1534 c0 -11 3 -14 6 -6 3 7 2 16 -1 19 -3 4 -6 -2 -5 -13z"/>
<path d="M1621 1494 c0 -11 3 -14 6 -6 3 7 2 16 -1 19 -3 4 -6 -2 -5 -13z"/>
<path d="M1621 1454 c0 -11 3 -14 6 -6 3 7 2 16 -1 19 -3 4 -6 -2 -5 -13z"/>
<path d="M1623 1385 c0 -27 2 -38 4 -22 2 15 2 37 0 50 -2 12 -4 0 -4 -28z"/>
<path d="M1622 1305 c0 -16 2 -22 5 -12 2 9 2 23 0 30 -3 6 -5 -1 -5 -18z"/>
<path d="M2266 1640 c-16 -5 -32 -7 -36 -5 -4 2 -22 -12 -41 -32 -19 -20 -28
-33 -21 -29 14 8 17 -10 3 -19 -5 -3 -15 -31 -21 -62 -9 -43 -9 -69 0 -112 7
-31 13 -64 14 -74 3 -20 56 -78 66 -72 3 2 24 -2 46 -10 47 -17 135 -18 189
-1 35 10 40 16 40 40 0 16 -6 30 -13 32 -7 1 -8 0 -2 -3 5 -2 10 -15 10 -28 0
-19 -8 -25 -47 -34 -27 -7 -77 -10 -112 -7 -77 5 -133 40 -165 101 -28 54 -28
163 -1 220 11 22 20 45 20 50 0 6 5 10 10 10 6 1 21 7 35 15 15 9 53 15 97 15
57 0 77 -4 100 -21 44 -32 73 -82 75 -128 l1 -41 4 37 c3 22 -3 50 -12 68 -9
18 -14 34 -11 38 8 7 -25 43 -34 37 -4 -3 -24 2 -44 10 -39 16 -104 18 -150 5z
m215 -37 c13 -16 12 -17 -3 -4 -10 7 -18 15 -18 17 0 8 8 3 21 -13z m-275
-335 l29 -33 -32 29 c-31 28 -38 36 -30 36 2 0 16 -15 33 -32z"/>
<path d="M2275 1581 c-31 -13 -56 -46 -58 -77 -2 -24 2 -29 21 -30 18 -1 19
-1 2 3 -21 5 -24 16 -10 48 6 13 9 15 9 5 1 -13 3 -13 10 0 6 8 7 18 5 22 -8
12 42 28 89 28 44 0 92 -24 81 -41 -4 -6 -14 -3 -26 8 -21 19 -94 27 -104 12
-3 -5 -11 -6 -17 -3 -7 4 -9 3 -4 -1 4 -5 -5 -21 -20 -37 l-27 -28 109 0 c81
0 106 3 98 11 -13 13 -5 42 9 33 6 -4 5 3 -2 15 -6 12 -22 26 -36 31 -30 12
-101 12 -129 1z"/>
<path d="M2445 1494 c0 -13 3 -24 8 -24 4 0 7 9 7 19 0 11 -3 22 -7 24 -5 3
-8 -6 -8 -19z"/>
<path d="M2283 1473 c9 -2 23 -2 30 0 6 3 -1 5 -18 5 -16 0 -22 -2 -12 -5z"/>
<path d="M2343 1473 c9 -2 23 -2 30 0 6 3 -1 5 -18 5 -16 0 -22 -2 -12 -5z"/>
<path d="M2398 1473 c6 -2 18 -2 25 0 6 3 1 5 -13 5 -14 0 -19 -2 -12 -5z"/>
<path d="M2507 1421 c-4 -17 -3 -21 5 -13 5 5 8 16 6 23 -3 8 -7 3 -11 -10z"/>
<path d="M2273 1403 c9 -2 23 -2 30 0 6 3 -1 5 -18 5 -16 0 -22 -2 -12 -5z"/>
<path d="M2333 1403 c9 -2 23 -2 30 0 6 3 -1 5 -18 5 -16 0 -22 -2 -12 -5z"/>
<path d="M2393 1403 c9 -2 23 -2 30 0 6 3 -1 5 -18 5 -16 0 -22 -2 -12 -5z"/>
<path d="M2453 1403 c9 -2 23 -2 30 0 6 3 -1 5 -18 5 -16 0 -22 -2 -12 -5z"/>
<path d="M2900 1626 c0 -2 8 -10 18 -17 15 -13 16 -12 3 4 -13 16 -21 21 -21
13z"/>
<path d="M2615 1549 c-4 -6 -5 -12 -2 -15 2 -3 7 2 10 11 7 17 1 20 -8 4z"/>
<path d="M2612 1470 c0 -14 2 -19 5 -12 2 6 2 18 0 25 -3 6 -5 1 -5 -13z"/>
<path d="M2610 1430 c0 -5 5 -10 11 -10 5 0 7 5 4 10 -3 6 -8 10 -11 10 -2 0
-4 -4 -4 -10z"/>
<path d="M2612 1390 c0 -14 2 -19 5 -12 2 6 2 18 0 25 -3 6 -5 1 -5 -13z"/>
<path d="M2612 1310 c0 -14 2 -19 5 -12 2 6 2 18 0 25 -3 6 -5 1 -5 -13z"/>
<path d="M2610 1270 c0 -5 5 -10 11 -10 5 0 7 5 4 10 -3 6 -8 10 -11 10 -2 0
-4 -4 -4 -10z"/>
</g>
</svg>
